# xmcd CD database file
#
# Track frame offsets:
#	150
#	16171
#	36840
#	57154
#	77595
#	90619
#	106803
#	133817
#	155632
#	176382
#	197670
#	213393
#
# Disc length: 3181 seconds
#
# Revision: 7
# Processed by: cddbd v1.5.2PL0 Copyright (c) Steve Scherf et al.
# Submitted via: CDex 1.70beta2
#
DISCID=950c6b0c
DTITLE=Tim Ripper Owens - Play My Game
DYEAR=2009
DGENRE=Heavy Metal
TTITLE0=Starting Over
TTITLE1=Believe
TTITLE2=The Cover Up
TTITLE3=Pick Yourself Up
TTITLE4=It Is Me
TTITLE5=No Good Goodbyes
TTITLE6=The World Is Blind
TTITLE7=To Live Again
TTITLE8=The Light
TTITLE9=Play My Game
TTITLE10=Death Race
TTITLE11=The Shadows Are Alive
EXTD=YEAR: 2009
EXTT0=
EXTT1=
EXTT2=
EXTT3=
EXTT4=
EXTT5=
EXTT6=
EXTT7=
EXTT8=
EXTT9=
EXTT10=
EXTT11=
PLAYORDER=
